<?xml version="1.0" encoding="utf-8"?>
<!-- Generator: Adobe Illustrator 15.0.0, SVG Export Plug-In  -->
<!DOCTYPE svg PUBLIC "-//W3C//DTD SVG 1.1//EN" "http://www.w3.org/Graphics/SVG/1.1/DTD/svg11.dtd" [
	<!ENTITY ns_flows "http://ns.adobe.com/Flows/1.0/">
]>
<svg version="1.1"
	 xmlns="http://www.w3.org/2000/svg" xmlns:xlink="http://www.w3.org/1999/xlink" xmlns:a="http://ns.adobe.com/AdobeSVGViewerExtensions/3.0/"
	 x="0px" y="0px" width="50px" height="50px" viewBox="-5 -9.841 50 50"
	 overflow="visible" enable-background="new -5 -9.841 50 50" xml:space="preserve">
<defs>
</defs>
<path fill="none" d="M21.072,14.282c-0.875,0-1.686,0.249-2.431,0.745c-0.745,0.498-1.388,1.14-1.928,1.927
	c-0.541,0.789-0.957,1.674-1.249,2.65c-0.292,0.98-0.438,1.936-0.438,2.871c0,0.965,0.197,1.752,0.591,2.365
	c0.395,0.613,1.074,0.922,2.038,0.922c0.408,0,0.847-0.125,1.313-0.373c0.468-0.248,0.92-0.576,1.358-0.986
	c0.438-0.408,0.86-0.877,1.271-1.402c0.408-0.525,0.773-1.08,1.096-1.664l1.096-6.046c-0.381-0.321-0.775-0.57-1.184-0.745
	C22.196,14.37,21.687,14.282,21.072,14.282z"/>
<path d="M38.554,9.791c-0.964-2.087-2.293-3.855-3.986-5.301c-1.694-1.445-3.695-2.556-6.003-3.33S23.76,0,21.072,0
	c-2.833,0-5.52,0.489-8.061,1.467c-2.541,0.979-4.776,2.374-6.703,4.184c-1.928,1.811-3.461,4.002-4.601,6.572
	C0.569,14.794,0,17.67,0,20.854c0,3.125,0.496,5.879,1.489,8.258c0.166,0.398,0.534,1.158,0.534,1.158h5.868
	c-0.81-1.018-1.466-2.166-1.956-3.457c-0.686-1.811-1.029-3.855-1.029-6.133c0-2.309,0.409-4.449,1.227-6.42
	c0.817-1.972,1.95-3.672,3.396-5.104c1.446-1.431,3.147-2.555,5.104-3.374c1.956-0.817,4.074-1.227,6.353-1.227
	c1.986,0,3.84,0.234,5.564,0.701c1.723,0.467,3.221,1.205,4.491,2.212c1.27,1.007,2.27,2.286,3.001,3.833
	c0.729,1.548,1.095,3.417,1.095,5.608c0,1.52-0.184,2.834-0.547,3.943c-0.367,1.111-0.841,2.029-1.424,2.76
	c-0.585,0.73-1.243,1.271-1.972,1.621c-0.73,0.352-1.476,0.527-2.235,0.527s-1.249-0.309-1.468-0.922s-0.212-1.605,0.022-2.979
	l2.104-11.873H26.55l-1.359,1.402c-0.584-0.496-1.226-0.898-1.927-1.205c-0.701-0.307-1.562-0.46-2.584-0.46
	c-1.49,0-2.899,0.402-4.229,1.204c-1.329,0.804-2.498,1.861-3.505,3.176c-1.008,1.315-1.804,2.827-2.388,4.534
	C9.974,20.35,9.682,22.11,9.682,23.92c0,0.965,0.139,1.842,0.417,2.629c0.276,0.789,0.649,1.461,1.116,2.016
	c0.468,0.555,1.022,0.986,1.665,1.293s1.314,0.459,2.016,0.459c0.876,0,1.68-0.131,2.409-0.393c0.73-0.264,1.402-0.621,2.016-1.074
	s1.176-0.971,1.688-1.557c0.511-0.582,0.985-1.182,1.424-1.795h0.175c-0.088,0.906-0.029,1.664,0.175,2.279
	c0.204,0.611,0.519,1.109,0.942,1.488c0.423,0.379,0.949,0.65,1.577,0.811s1.307,0.24,2.037,0.24c1.753,0,3.396-0.35,4.929-1.051
	c1.534-0.701,2.877-1.65,4.031-2.848c1.153-1.197,2.059-2.613,2.716-4.25S40,18.782,40,16.911C40,14.253,39.518,11.88,38.554,9.791z
	 M22.694,21.336c-0.322,0.584-0.688,1.139-1.096,1.664c-0.41,0.525-0.832,0.994-1.271,1.402c-0.438,0.41-0.891,0.738-1.358,0.986
	c-0.467,0.248-0.905,0.373-1.313,0.373c-0.964,0-1.644-0.309-2.038-0.922c-0.394-0.613-0.591-1.4-0.591-2.365
	c0-0.936,0.146-1.891,0.438-2.871c0.292-0.977,0.708-1.861,1.249-2.65c0.54-0.787,1.183-1.429,1.928-1.927
	c0.745-0.496,1.556-0.745,2.431-0.745c0.614,0,1.124,0.087,1.534,0.263c0.408,0.175,0.803,0.424,1.184,0.745L22.694,21.336z"/>
</svg>
