<?xml version="1.0" encoding="utf-8"?>
<!-- Generator: Adobe Illustrator 15.0.0, SVG Export Plug-In  -->
<!DOCTYPE svg PUBLIC "-//W3C//DTD SVG 1.1//EN" "http://www.w3.org/Graphics/SVG/1.1/DTD/svg11.dtd" [
	<!ENTITY ns_flows "http://ns.adobe.com/Flows/1.0/">
]>
<svg version="1.1"
	 xmlns="http://www.w3.org/2000/svg" xmlns:xlink="http://www.w3.org/1999/xlink" xmlns:a="http://ns.adobe.com/AdobeSVGViewerExtensions/3.0/"
	 x="0px" y="0px" width="50px" height="50px" viewBox="-7.768 -5 50 50"
	 overflow="visible" enable-background="new -7.768 -5 50 50" xml:space="preserve">
<defs>
</defs>
<path d="M30.403,5.536V3.383C30.403,1.266,29.066,0,26.827,0c-2.238,0-3.576,1.266-3.576,3.383v2.152h-2.422V3.383
	C20.829,1.266,19.493,0,17.254,0c-2.239,0-3.576,1.266-3.576,3.383v2.152h-2.422V3.383C11.256,1.266,9.919,0,7.681,0
	C5.441,0,4.104,1.266,4.104,3.383v2.152H0V40h34.465V5.536H30.403z M2.872,25.861H9.06v5.295H2.872V25.861z M31.593,24.905H25.39
	v-5.772h6.203V24.905z M24.433,24.905h-6.729v-5.772h6.729V24.905z M16.746,24.905h-6.729v-5.772h6.729V24.905z M9.06,24.905H2.872
	v-5.772H9.06V24.905z M10.017,25.861h6.729v5.295h-6.729V25.861z M16.746,32.112v5.016h-6.729v-5.016H16.746z M17.704,32.112h6.729
	v5.016h-6.729V32.112z M17.704,31.156v-5.295h6.729v5.295H17.704z M25.39,25.861h6.203v5.295H25.39V25.861z M31.593,13.194v4.982
	H25.39v-4.982H31.593z M25.166,3.383c0-1.045,0.479-1.469,1.661-1.469c1.183,0,1.661,0.424,1.661,1.469v5.755
	c0,1.045-0.479,1.469-1.661,1.469c-1.182,0-1.661-0.424-1.661-1.469V3.383z M24.433,13.194v4.982h-6.729v-4.982H24.433z
	 M15.593,3.383c0-1.045,0.479-1.469,1.661-1.469c1.18,0,1.66,0.424,1.66,1.469v5.755c0,1.045-0.479,1.469-1.66,1.469
	c-1.182,0-1.661-0.424-1.661-1.469V3.383z M16.746,13.194v4.982h-6.729v-4.982H16.746z M6.02,3.383c0-1.045,0.479-1.469,1.661-1.469
	c1.181,0,1.661,0.424,1.661,1.469v5.755c0,1.045-0.479,1.469-1.661,1.469c-1.183,0-1.661-0.424-1.661-1.469V3.383z M9.06,13.194
	v4.982H2.872v-4.982H9.06z M2.872,32.112H9.06v5.016H2.872V32.112z M25.39,37.128v-5.016h6.203v5.016H25.39z"/>
</svg>
