<?xml version="1.0" encoding="utf-8"?>
<!-- Generator: Adobe Illustrator 15.0.0, SVG Export Plug-In . SVG Version: 6.00 Build 0)  -->
<!DOCTYPE svg PUBLIC "-//W3C//DTD SVG 1.1//EN" "http://www.w3.org/Graphics/SVG/1.1/DTD/svg11.dtd">
<svg version="1.1" id="Layer_1" xmlns="http://www.w3.org/2000/svg" xmlns:xlink="http://www.w3.org/1999/xlink" x="0px" y="0px"
	 width="50px" height="50px" viewBox="0 0 50 50" enable-background="new 0 0 50 50" xml:space="preserve">
<g>
	<path d="M46.69,12.427h-9.237c-0.007-0.014-0.01-0.027-0.018-0.041L36.11,9.739C35.77,9.057,34.868,8.5,34.104,8.5H16.325
		c-0.762,0-1.664,0.557-2.005,1.239l-1.326,2.647c-0.007,0.014-0.009,0.027-0.016,0.041H3.31c-0.763,0-1.385,0.624-1.385,1.385
		v26.302c0,0.762,0.623,1.386,1.385,1.386h43.38c0.761,0,1.385-0.624,1.385-1.386V13.812C48.075,13.051,47.451,12.427,46.69,12.427z
		 M25.026,37.513c-6.006,0-10.876-4.87-10.876-10.879c0-6.006,4.87-10.875,10.876-10.875c6.008,0,10.879,4.869,10.879,10.875
		C35.905,32.643,31.034,37.513,25.026,37.513z"/>
	<path d="M25.026,19.607c-3.875,0-7.028,3.152-7.028,7.027c0,3.876,3.153,7.03,7.028,7.03c3.878,0,7.03-3.154,7.03-7.03
		C32.057,22.759,28.904,19.607,25.026,19.607z"/>
</g>
</svg>
