<?xml version="1.0" encoding="utf-8"?>
<!-- Generator: Adobe Illustrator 15.0.0, SVG Export Plug-In  -->
<!DOCTYPE svg PUBLIC "-//W3C//DTD SVG 1.1//EN" "http://www.w3.org/Graphics/SVG/1.1/DTD/svg11.dtd" [
	<!ENTITY ns_flows "http://ns.adobe.com/Flows/1.0/">
]>
<svg version="1.1"
	 xmlns="http://www.w3.org/2000/svg" xmlns:xlink="http://www.w3.org/1999/xlink" xmlns:a="http://ns.adobe.com/AdobeSVGViewerExtensions/3.0/"
	 x="0px" y="0px" width="50px" height="50px" viewBox="-5 -5.014 50 50"
	 overflow="visible" enable-background="new -5 -5.014 50 50" xml:space="preserve">
<defs>
</defs>
<path d="M4.412,39.652l3.071-3.072c0.853,0.729,2.13,0.699,2.936-0.105l17.488-17.491l1.558,1.557
	c1.221,1.221,3.368,1.055,4.795-0.372c1.427-1.428,1.594-3.573,0.373-4.795l-1.555-1.554l5.502-5.502l-0.001,0
	c1.896-1.905,1.895-4.986-0.008-6.889c-1.901-1.901-4.983-1.903-6.889-0.008l-5.502,5.502L24.5,5.241
	c-1.222-1.221-3.368-1.055-4.796,0.373c-1.427,1.426-1.593,3.573-0.372,4.793l1.684,1.684l-17.49,17.49
	c-0.406,0.406-0.635,0.957-0.635,1.531c0,0.506,0.184,0.986,0.503,1.373L0.317,35.56C0.112,35.763,0,36.037,0,36.326
	c0,0.291,0.112,0.561,0.317,0.768l2.561,2.559c0.202,0.203,0.482,0.32,0.768,0.32S4.21,39.855,4.412,39.652z M22.548,13.624
	l3.827,3.827L8.886,34.941l-3.828-3.828L22.548,13.624z M2.617,36.326l2.061-2.062l1.029,1.029l-2.062,2.061L2.617,36.326z"/>
</svg>
