<?xml version="1.0" encoding="utf-8"?>
<!-- Generator: Adobe Illustrator 15.0.0, SVG Export Plug-In  -->
<!DOCTYPE svg PUBLIC "-//W3C//DTD SVG 1.1//EN" "http://www.w3.org/Graphics/SVG/1.1/DTD/svg11.dtd" [
	<!ENTITY ns_flows "http://ns.adobe.com/Flows/1.0/">
]>
<svg version="1.1"
	 xmlns="http://www.w3.org/2000/svg" xmlns:xlink="http://www.w3.org/1999/xlink" xmlns:a="http://ns.adobe.com/AdobeSVGViewerExtensions/3.0/"
	 x="0px" y="0px" width="50px" height="50px" viewBox="-5 -5 50 50" overflow="visible" enable-background="new -5 -5 50 50"
	 xml:space="preserve">
<defs>
</defs>
<path d="M20,0C8.954,0,0,8.954,0,20s8.954,20,20,20s20-8.954,20-20S31.046,0,20,0z M18.614,33.93l-3.66-9.742h3.934
	c0.954-2.863,1.978-5.646,2.006-5.744l-8.399,0.007l0.003-0.01h-0.003l0.003-0.002L16.87,6.114h4.713
	c-1.026,3.51-3.032,8.995-3.072,9.133l8.4-0.007l-0.004,0.01h0.004l-0.004,0.002l-3.18,8.935h4.172L18.614,33.93z"/>
</svg>
