<?xml version="1.0" encoding="utf-8"?>
<!-- Generator: Adobe Illustrator 15.0.0, SVG Export Plug-In  -->
<!DOCTYPE svg PUBLIC "-//W3C//DTD SVG 1.1//EN" "http://www.w3.org/Graphics/SVG/1.1/DTD/svg11.dtd" [
	<!ENTITY ns_flows "http://ns.adobe.com/Flows/1.0/">
]>
<svg version="1.1"
	 xmlns="http://www.w3.org/2000/svg" xmlns:xlink="http://www.w3.org/1999/xlink" xmlns:a="http://ns.adobe.com/AdobeSVGViewerExtensions/3.0/"
	 x="0px" y="0px" width="50px" height="50px" viewBox="-5 -5.018 50 50"
	 overflow="visible" enable-background="new -5 -5.018 50 50" xml:space="preserve">
<defs>
</defs>
<polygon points="15.276,23.478 8.536,30.218 7.338,29.021 14.079,22.28 12.194,20.395 3.542,29.047 3.538,29.047 3.538,29.051 
	3.537,29.051 3.538,29.051 0.042,39.811 10.802,36.315 10.802,36.315 10.803,36.315 10.806,36.314 10.806,36.312 19.458,27.66 "/>
<polygon points="22.238,14.121 25.358,11.001 26.555,12.197 23.435,15.318 27.617,19.5 32.604,14.514 25.339,7.25 20.353,12.236 "/>
<rect x="30.447" y="0.887" transform="matrix(0.707 -0.7073 0.7073 0.707 5.6528 25.6901)" width="6.763" height="10.272"/>
<path d="M30.947,22.534c-0.861,0-1.784,0.281-2.693,0.749L16.69,11.719c0.463-0.908,0.741-1.821,0.74-2.659
	c0-4.6-4.371-9.052-8.966-9.052c-0.029,0-0.057,0-0.085,0c-0.018,0-0.541,0.53-0.826,0.814c3.708,3.709,3.401,3.105,3.401,5.381
	c0,1.845-2.956,4.759-4.759,4.759c-0.396,0-0.703,0.011-0.959,0.011c-1.254,0-1.273-0.266-4.42-3.413C0.522,7.854,0,8.369,0,8.386
	c0.057,4.628,4.426,9.052,9.053,9.052c0.838,0,1.733-0.267,2.618-0.711l11.603,11.603c-0.441,0.883-0.704,1.77-0.704,2.583
	c0,4.601,4.372,9.053,8.968,9.053c0.028,0,0.056,0,0.084,0c0.018,0,0.54-0.53,0.825-0.815c-3.708-3.708-3.401-3.105-3.401-5.38
	c0-1.845,2.955-4.76,4.759-4.76c0.396,0,0.702-0.011,0.958-0.011c1.255,0,1.274,0.267,4.422,3.413
	c0.294-0.293,0.815-0.809,0.816-0.825C39.943,26.959,35.573,22.534,30.947,22.534z"/>
</svg>
