<?xml version="1.0" encoding="utf-8"?>
<!-- Generator: Adobe Illustrator 15.0.0, SVG Export Plug-In  -->
<!DOCTYPE svg PUBLIC "-//W3C//DTD SVG 1.1//EN" "http://www.w3.org/Graphics/SVG/1.1/DTD/svg11.dtd" [
	<!ENTITY ns_flows "http://ns.adobe.com/Flows/1.0/">
]>
<svg version="1.1"
	 xmlns="http://www.w3.org/2000/svg" xmlns:xlink="http://www.w3.org/1999/xlink" xmlns:a="http://ns.adobe.com/AdobeSVGViewerExtensions/3.0/"
	 x="0px" y="0px" width="50px" height="50px" viewBox="-5 -8.644 50 50"
	 overflow="visible" enable-background="new -5 -8.644 50 50" xml:space="preserve">
<defs>
</defs>
<path fill="#231F20" d="M12.306,24.851c-1.02-1.911-2.517-2.867-4.492-2.867c-1.498,0-2.776,0.562-3.835,1.685
	c-1.06,1.123-1.589,2.474-1.589,4.051v2.055H0V17.156c0-1.306,0.836-1.959,2.509-1.959h0.932l2.413-5.854
	c0.335-0.796,0.932-1.194,1.792-1.194h4.659V24.851z M12.306,27.981c0,1.307-0.438,2.422-1.314,3.345
	c-0.876,0.925-1.936,1.387-3.178,1.387c-1.242,0-2.302-0.462-3.178-1.387c-0.876-0.923-1.314-2.038-1.314-3.345
	c0-1.306,0.438-2.421,1.314-3.346c0.875-0.924,1.936-1.386,3.178-1.386c1.243,0,2.302,0.462,3.178,1.386
	C11.868,25.561,12.306,26.676,12.306,27.981z M11.517,15.197V9.415H6.619L4.42,15.197H11.517z M40,29.773h-1.123v-2.055
	c0-1.577-0.534-2.928-1.601-4.051c-1.067-1.123-2.351-1.685-3.848-1.685s-2.775,0.562-3.835,1.685s-1.589,2.474-1.589,4.051
	l-0.024,2.055H13.142V3.536H40V29.773z M19.642,2.987h-3.25L17.037,0h2.103L19.642,2.987z M35.078,17.062v-6.858h-4.827V5.377
	h-6.857v4.826h-4.852v6.858h4.852v4.851h6.857v-4.851H35.078z M37.993,27.981c0,1.307-0.442,2.422-1.326,3.345
	c-0.885,0.925-1.94,1.387-3.166,1.387c-1.243,0-2.303-0.462-3.179-1.387c-0.876-0.923-1.313-2.038-1.313-3.345
	c0-1.306,0.438-2.421,1.313-3.346c0.876-0.924,1.936-1.386,3.179-1.386c1.226,0,2.281,0.462,3.166,1.386
	C37.551,25.561,37.993,26.676,37.993,27.981z"/>
</svg>
