<?xml version="1.0" encoding="utf-8"?>
<!-- Generator: Adobe Illustrator 15.0.0, SVG Export Plug-In  -->
<!DOCTYPE svg PUBLIC "-//W3C//DTD SVG 1.1//EN" "http://www.w3.org/Graphics/SVG/1.1/DTD/svg11.dtd" [
	<!ENTITY ns_flows "http://ns.adobe.com/Flows/1.0/">
]>
<svg version="1.1"
	 xmlns="http://www.w3.org/2000/svg" xmlns:xlink="http://www.w3.org/1999/xlink" xmlns:a="http://ns.adobe.com/AdobeSVGViewerExtensions/3.0/"
	 x="0px" y="0px" width="50px" height="50px" viewBox="-5.214 -5 50 50"
	 overflow="visible" enable-background="new -5.214 -5 50 50" xml:space="preserve">
<defs>
</defs>
<path fill="#231F20" d="M38.08,9.771c-0.44-0.131-0.855-0.195-1.268-0.195H2.762c-0.415,0-0.831,0.064-1.271,0.196
	C0.734,9.999,0.163,10.62,0,11.391v26.88c0.188,0.751,0.811,1.343,1.556,1.552C1.979,39.942,2.375,40,2.762,40h34.051
	c0.388,0,0.785-0.059,1.21-0.179c0.744-0.209,1.362-0.801,1.55-1.551V11.389C39.408,10.617,38.836,9.996,38.08,9.771z M2.138,37.747
	l12.728-12.216l4.92,3.991l4.929-3.997l12.724,12.222H2.138z M2.183,14.963l11.003,9.192L2.194,34.647L2.183,14.963z M26.394,24.149
	l10.997-9.187L37.38,34.647L26.394,24.149z M19.787,26.743L2.109,11.837l35.354,0L19.787,26.743z"/>
<path fill="#231F20" d="M2.028,5.839c0,0.595,0.483,1.078,1.078,1.078h33.057c0.596,0,1.078-0.483,1.078-1.078
	c0-0.596-0.482-1.078-1.078-1.078H3.106C2.511,4.761,2.028,5.243,2.028,5.839z"/>
<path fill="#231F20" d="M4.948,0C4.353,0,3.87,0.482,3.87,1.078c0,0.596,0.483,1.078,1.078,1.078h29.375
	c0.595,0,1.077-0.482,1.077-1.078C35.399,0.482,34.917,0,34.322,0H4.948z"/>
</svg>
