<?xml version="1.0" encoding="utf-8"?>
<!-- Generator: Adobe Illustrator 15.0.0, SVG Export Plug-In  -->
<!DOCTYPE svg PUBLIC "-//W3C//DTD SVG 1.1//EN" "http://www.w3.org/Graphics/SVG/1.1/DTD/svg11.dtd" [
	<!ENTITY ns_flows "http://ns.adobe.com/Flows/1.0/">
]>
<svg version="1.1"
	 xmlns="http://www.w3.org/2000/svg" xmlns:xlink="http://www.w3.org/1999/xlink" xmlns:a="http://ns.adobe.com/AdobeSVGViewerExtensions/3.0/"
	 x="0px" y="0px" width="50px" height="50px" viewBox="-5 -5 50 50" overflow="visible" enable-background="new -5 -5 50 50"
	 xml:space="preserve">
<defs>
</defs>
<path d="M20,0C8.955,0,0,8.954,0,20s8.955,20,20,20c11.046,0,20-8.954,20-20S31.046,0,20,0z M35,20c0,3.231-1.031,6.225-2.775,8.677
	L11.324,7.775C13.775,6.031,16.769,5,20,5C28.271,5,35,11.729,35,20z M5,20c0-3.255,1.045-6.268,2.813-8.729l20.916,20.916
	C26.269,33.954,23.255,35,20,35C11.729,35,5,28.271,5,20z"/>
</svg>
