<?xml version="1.0" encoding="utf-8"?>
<!-- Generator: Adobe Illustrator 15.0.0, SVG Export Plug-In  -->
<!DOCTYPE svg PUBLIC "-//W3C//DTD SVG 1.1//EN" "http://www.w3.org/Graphics/SVG/1.1/DTD/svg11.dtd" [
	<!ENTITY ns_flows "http://ns.adobe.com/Flows/1.0/">
]>
<svg version="1.1"
	 xmlns="http://www.w3.org/2000/svg" xmlns:xlink="http://www.w3.org/1999/xlink" xmlns:a="http://ns.adobe.com/AdobeSVGViewerExtensions/3.0/"
	 x="0px" y="0px" width="50px" height="50px" viewBox="-5 -10.788 50 50"
	 overflow="visible" enable-background="new -5 -10.788 50 50" xml:space="preserve">
<defs>
</defs>
<path fill="#231F20" d="M13.997,20.146c0.088-0.039,0.186-0.089,0.277-0.133c0.65-0.854,1.083-2.187,1.755-3.898
	c0.013-0.03,0.023-0.063,0.036-0.095c0.188,0.033,0.38,0.031,0.52-0.057c0.391-0.245,0.627-1.578,0.635-2.229
	c0.011-0.974-0.476-0.878-0.476-0.878s-0.011-0.003-0.025-0.007c0.002-0.078,0.007-0.155,0.007-0.233
	c0-0.88,0.179-2.368-0.055-3.196c-0.352-1.251-0.28-1.722-0.921-2.399c-0.909-0.964-2.229-1.374-2.752-1.374
	c-0.363,0-3.237-0.403-4.583,1.156c-0.931,0-1.353,1.377-1.702,2.626c-0.226,0.806-0.053,2.273-0.053,3.188
	c0,0.076,0.005,0.153,0.007,0.229c-0.022,0.006-0.04,0.011-0.04,0.011s-0.486-0.096-0.477,0.878c0.008,0.65,0.245,1.983,0.636,2.229
	c0.144,0.09,0.341,0.09,0.534,0.054c0.014,0.035,0.025,0.07,0.039,0.105c0.847,2.149,1.279,3.7,2.27,4.449
	c-3.22,0.414-5.012,1.719-6.531,2.397C0.015,24.344,0,25.867,0,25.867v2.557l9.177-0.002v-3.198
	C9.182,24.733,9.437,22.181,13.997,20.146z"/>
<path fill="#231F20" d="M36.128,21.624c-1.905-0.848-4.151-2.483-8.202-2.988c1.225-0.942,1.797-2.884,2.839-5.54
	c0.016-0.039,0.03-0.08,0.045-0.119c0.088,0.016,0.176,0.025,0.261,0.025c0.144,0,0.277-0.026,0.387-0.096
	c0.486-0.305,0.781-1.966,0.79-2.775c0.011-1.014-0.41-1.097-0.549-1.097c-0.027,0-0.044,0.003-0.044,0.003s-0.012-0.003-0.03-0.009
	c0.003-0.097,0.008-0.193,0.008-0.29c0-1.096,0.223-2.949-0.067-3.98c-0.438-1.559-0.35-2.145-1.147-2.989
	c-1.132-1.199-2.774-1.711-3.427-1.711C26.836,0.058,26.318,0,25.638,0c-1.318,0-3.25,0.218-4.354,1.498
	c-1.16,0-1.685,1.715-2.121,3.27c-0.281,1.004-0.064,2.832-0.064,3.971c0,0.096,0.005,0.19,0.008,0.286
	c-0.028,0.007-0.049,0.013-0.049,0.013s-0.017-0.003-0.044-0.003c-0.14,0-0.561,0.083-0.55,1.097
	c0.009,0.81,0.305,2.471,0.791,2.775c0.109,0.069,0.244,0.096,0.388,0.096c0.091,0,0.185-0.011,0.278-0.028
	c0.017,0.043,0.031,0.089,0.048,0.131c1.055,2.678,1.592,4.608,2.826,5.541c-4.009,0.517-6.241,2.141-8.135,2.986
	c-3.839,1.711-3.857,3.608-3.857,3.608v3.184L40,28.419V25.24C40,25.24,39.981,23.336,36.128,21.624z"/>
</svg>
