<?xml version="1.0" encoding="utf-8"?>
<!-- Generator: Adobe Illustrator 15.0.0, SVG Export Plug-In  -->
<!DOCTYPE svg PUBLIC "-//W3C//DTD SVG 1.1//EN" "http://www.w3.org/Graphics/SVG/1.1/DTD/svg11.dtd" [
	<!ENTITY ns_flows "http://ns.adobe.com/Flows/1.0/">
]>
<svg version="1.1"
	 xmlns="http://www.w3.org/2000/svg" xmlns:xlink="http://www.w3.org/1999/xlink" xmlns:a="http://ns.adobe.com/AdobeSVGViewerExtensions/3.0/"
	 x="0px" y="0px" width="50px" height="50px" viewBox="-8.125 -5 50 50"
	 overflow="visible" enable-background="new -8.125 -5 50 50" xml:space="preserve">
<defs>
</defs>
<path fill="#231F20" d="M24.303,29.446c-0.101,0.161-0.262,0.275-0.447,0.314c-0.05,0.01-0.1,0.015-0.149,0.015
	c-0.136,0-0.272-0.041-0.389-0.116l-7.764-5.201c-0.067-0.035-0.13-0.079-0.183-0.131c-0.13-0.132-0.205-0.312-0.205-0.497v-9.149
	c0-0.186,0.075-0.366,0.205-0.497c0.132-0.131,0.312-0.205,0.497-0.205h1.843c0.185,0,0.366,0.074,0.496,0.205
	c0.132,0.131,0.206,0.312,0.206,0.497v7.748l6.664,4.501c0.312,0.211,0.403,0.635,0.202,0.954L24.303,29.446z"/>
<path fill="#231F20" d="M14.998,4.532l-1.799-3.117C12.155-0.391,9.184-0.684,4.87,1.808c-4.313,2.49-5.565,5.222-4.522,7.026
	l1.703,2.949C5.11,7.795,9.734,5.067,14.998,4.532z"/>
<path fill="#231F20" d="M31.695,11.703l1.656-2.869c1.042-1.805-0.209-4.536-4.522-7.026c-4.314-2.491-7.285-2.198-8.328-0.393
	l-1.795,3.109C23.977,5.03,28.614,7.733,31.695,11.703z"/>
<path fill="#231F20" d="M16.905,6.308C7.6,6.308,0.057,13.85,0.057,23.154S7.6,40,16.905,40c9.303,0,16.846-7.541,16.846-16.846
	S26.208,6.308,16.905,6.308z M16.905,35.789c-6.968,0-12.636-5.667-12.636-12.635c0-6.967,5.668-12.635,12.636-12.635
	c6.966,0,12.635,5.668,12.635,12.635C29.54,30.122,23.871,35.789,16.905,35.789z"/>
<path fill="#231F20" d="M25.078,26.93l-6.664-4.501v-7.748c0-0.186-0.074-0.366-0.206-0.497c-0.13-0.131-0.312-0.205-0.496-0.205
	h-1.843c-0.186,0-0.365,0.074-0.497,0.205c-0.13,0.131-0.205,0.312-0.205,0.497v9.149c0,0.186,0.075,0.365,0.205,0.497
	c0.053,0.052,0.115,0.096,0.183,0.131l7.764,5.201c0.116,0.075,0.253,0.116,0.389,0.116c0.05,0,0.1-0.005,0.149-0.015
	c0.186-0.039,0.347-0.153,0.447-0.314l0.977-1.562C25.481,27.564,25.39,27.141,25.078,26.93z"/>
</svg>
