<?xml version="1.0" encoding="utf-8"?>
<!-- Generator: Adobe Illustrator 15.0.0, SVG Export Plug-In  -->
<!DOCTYPE svg PUBLIC "-//W3C//DTD SVG 1.1//EN" "http://www.w3.org/Graphics/SVG/1.1/DTD/svg11.dtd" [
	<!ENTITY ns_flows "http://ns.adobe.com/Flows/1.0/">
]>
<svg version="1.1"
	 xmlns="http://www.w3.org/2000/svg" xmlns:xlink="http://www.w3.org/1999/xlink" xmlns:a="http://ns.adobe.com/AdobeSVGViewerExtensions/3.0/"
	 x="0px" y="0px" width="50px" height="50px" viewBox="-7.768 -5 50 50"
	 overflow="visible" enable-background="new -7.768 -5 50 50" xml:space="preserve">
<defs>
</defs>
<path d="M30.403,5.535V3.384C30.403,1.265,29.066,0,26.827,0c-2.238,0-3.576,1.265-3.576,3.384v2.151h-2.422V3.384
	C20.829,1.265,19.493,0,17.254,0c-2.238,0-3.576,1.265-3.576,3.384v2.151h-2.422V3.384C11.256,1.265,9.919,0,7.68,0
	C5.441,0,4.104,1.265,4.104,3.384v2.151H0V40h34.465V5.535H30.403z M25.166,3.384c0-1.046,0.479-1.47,1.661-1.47
	c1.183,0,1.661,0.424,1.661,1.47v5.755c0,1.045-0.479,1.47-1.661,1.47c-1.182,0-1.661-0.425-1.661-1.47V3.384z M15.594,3.384
	c0-1.046,0.479-1.47,1.66-1.47c1.181,0,1.66,0.424,1.66,1.47v5.755c0,1.045-0.479,1.47-1.66,1.47c-1.182,0-1.66-0.425-1.66-1.47
	V3.384z M6.02,3.384c0-1.046,0.479-1.47,1.66-1.47c1.183,0,1.662,0.424,1.662,1.47v5.755c0,1.045-0.479,1.47-1.662,1.47
	c-1.182,0-1.66-0.425-1.66-1.47V3.384z M31.592,37.128H2.872V13.193h28.72V37.128z"/>
<path d="M24.522,27.055c0.688,0,1.25-0.563,1.25-1.25v-1.393c0-0.688-0.562-1.249-1.25-1.25H9.908
	c-0.687,0.001-1.249,0.562-1.249,1.25v1.392c0,0.688,0.562,1.251,1.249,1.251H24.522z"/>
</svg>
