<?xml version="1.0" encoding="utf-8"?>
<!-- Generator: Adobe Illustrator 15.0.0, SVG Export Plug-In . SVG Version: 6.00 Build 0)  -->
<!DOCTYPE svg PUBLIC "-//W3C//DTD SVG 1.1//EN" "http://www.w3.org/Graphics/SVG/1.1/DTD/svg11.dtd">
<svg version="1.1" id="Layer_1" xmlns="http://www.w3.org/2000/svg" xmlns:xlink="http://www.w3.org/1999/xlink" x="0px" y="0px"
	 width="50px" height="50px" viewBox="0 0 50 50" enable-background="new 0 0 50 50" xml:space="preserve">
<path d="M38.598,35.02L26.883,23.304c1.698-2.406,2.699-5.342,2.699-8.513C29.582,6.621,22.96,0,14.792,0S0,6.621,0,14.791
	c0,8.168,6.623,14.79,14.792,14.79c3.186,0,6.135-1.011,8.549-2.726L35.05,38.566c1.074,1.074,2.751,1.154,3.728,0.179
	C39.752,37.771,39.672,36.093,38.598,35.02z M4.933,14.791c0-5.437,4.422-9.858,9.859-9.858c5.436,0,9.858,4.422,9.858,9.858
	s-4.422,9.858-9.858,9.858C9.354,24.649,4.933,20.227,4.933,14.791z"/>
</svg>
