<?xml version="1.0" encoding="utf-8"?>
<!-- Generator: Adobe Illustrator 15.0.0, SVG Export Plug-In  -->
<!DOCTYPE svg PUBLIC "-//W3C//DTD SVG 1.1//EN" "http://www.w3.org/Graphics/SVG/1.1/DTD/svg11.dtd" [
	<!ENTITY ns_flows "http://ns.adobe.com/Flows/1.0/">
]>
<svg version="1.1"
	 xmlns="http://www.w3.org/2000/svg" xmlns:xlink="http://www.w3.org/1999/xlink" xmlns:a="http://ns.adobe.com/AdobeSVGViewerExtensions/3.0/"
	 x="0px" y="0px" width="50px" height="50px" viewBox="-5 -16.046 50 50"
	 overflow="visible" enable-background="new -5 -16.046 50 50" xml:space="preserve">
<defs>
</defs>
<path fill="#231F20" d="M39.122,0.115C38.862,0.038,38.618,0,38.376,0H18.332c-0.244,0-0.489,0.038-0.749,0.116
	c-0.444,0.133-0.78,0.498-0.877,0.953v15.822c0.111,0.441,0.478,0.79,0.916,0.913c0.249,0.07,0.481,0.104,0.71,0.104h20.044
	c0.229,0,0.461-0.034,0.712-0.104c0.438-0.123,0.802-0.472,0.912-0.913V1.067C39.904,0.613,39.567,0.247,39.122,0.115z
	 M17.965,16.583l7.491-7.19l2.896,2.35l2.901-2.354l7.49,7.194H17.965z M17.992,3.171l6.476,5.411l-6.47,6.176L17.992,3.171z
	 M32.243,8.579l6.474-5.408L38.71,14.758L32.243,8.579z M28.354,10.105L17.948,1.331h20.81L28.354,10.105z"/>
<path fill="#231F20" d="M1.11,2.133C0.497,2.133,0,2.63,0,3.243s0.497,1.11,1.11,1.11h12.955V2.133H1.11z"/>
<path fill="#231F20" d="M5.869,7.844c-0.613,0-1.11,0.497-1.11,1.11s0.497,1.11,1.11,1.11h8.196V7.844H5.869z"/>
<path fill="#231F20" d="M14.065,13.555h-3.438c-0.613,0-1.109,0.497-1.109,1.11s0.497,1.11,1.109,1.11h3.438V13.555z"/>
</svg>
