<?xml version="1.0" encoding="utf-8"?>
<!-- Generator: Adobe Illustrator 15.0.0, SVG Export Plug-In  -->
<!DOCTYPE svg PUBLIC "-//W3C//DTD SVG 1.1//EN" "http://www.w3.org/Graphics/SVG/1.1/DTD/svg11.dtd" [
	<!ENTITY ns_flows "http://ns.adobe.com/Flows/1.0/">
]>
<svg version="1.1"
	 xmlns="http://www.w3.org/2000/svg" xmlns:xlink="http://www.w3.org/1999/xlink" xmlns:a="http://ns.adobe.com/AdobeSVGViewerExtensions/3.0/"
	 x="0px" y="0px" width="50px" height="50px" viewBox="-5 -4.939 50 50"
	 overflow="visible" enable-background="new -5 -4.939 50 50" xml:space="preserve">
<defs>
</defs>
<path d="M23.572,28.81l6.325,6.325l3.361,4.504l1.783,0.482L40,35.135l-0.48-1.825l-4.472-3.328l-6.67-6.671l-4.722,4.722
	C23.65,28.297,23.619,28.556,23.572,28.81z M34.565,32.519c1.159,0,2.1,0.939,2.1,2.099s-0.94,2.099-2.1,2.099
	c-1.158,0-2.099-0.939-2.099-2.099S33.407,32.519,34.565,32.519z"/>
<path d="M20.857,15.79l-3.705-3.705c0.477-0.933,0.762-1.871,0.761-2.732c0-4.757-4.548-9.359-9.302-9.303
	c-0.018,0-0.556,0.545-0.848,0.837c3.81,3.811,3.496,3.192,3.496,5.529c0,1.896-3.038,4.892-4.892,4.892
	c-2.4,0-1.635,0.397-5.528-3.496C0.536,8.113,0,8.643,0,8.66c0.058,4.756,4.548,9.303,9.303,9.303c0.861,0,1.782-0.274,2.691-0.731
	l3.367,3.367c0.253-0.047,0.51-0.079,0.772-0.085L20.857,15.79z"/>
<path d="M36.02,23.896l2.536,2.47c0,0,3.653-10.126-0.685-14.463c-1.567-1.568-3.884-3.885-5.705-5.706
	c-0.394-0.394-1.499-0.038-1.783-0.416c-0.799-1.06-1.092-1.965-1.155-2.185c-0.174-0.835-1.061-1.651-1.778-2.37l-0.268-0.267
	C26.585,0.361,26.275,0,25.911,0c-0.303,0-0.646,0.252-1.225,0.832l-3.472,3.472c-1.273,1.273-0.971,1.399,0.126,2.496l0.268,0.267
	c0.8,0.8,1.721,1.811,2.653,1.811c0.012,0,0.022,0,0.034,0c0.718,0.135,2.2,0.555,2.882,1.808c0.75,1.659-0.31,2.801-0.734,3.438
	l-9.307,9.307c-0.299-0.095-0.595-0.146-0.879-0.146c-0.504,0-0.971,0.163-1.349,0.542c-0.07,0.07-0.173,0.172-0.297,0.297
	c0,0-7.665,7.665-9.654,9.653c-0.125,0.125-0.227,0.227-0.297,0.297c-1.892,1.892,1.562,5.979,4.083,5.979
	c0.505,0,0.974-0.164,1.353-0.544c0.072-0.07,0.173-0.173,0.298-0.297c1.994-1.994,9.653-9.653,9.653-9.653
	c0.124-0.125,0.226-0.226,0.297-0.297c0.592-0.592,0.657-1.399,0.396-2.229L31.171,16.6c0.649-0.544,1.297-1.047,1.666-1.047
	c0.056,0,0.104,0.012,0.146,0.036C36.758,17.756,36.02,23.896,36.02,23.896z"/>
</svg>
