<?xml version="1.0" encoding="utf-8"?>
<!-- Generator: Adobe Illustrator 15.0.0, SVG Export Plug-In  -->
<!DOCTYPE svg PUBLIC "-//W3C//DTD SVG 1.1//EN" "http://www.w3.org/Graphics/SVG/1.1/DTD/svg11.dtd" [
	<!ENTITY ns_flows "http://ns.adobe.com/Flows/1.0/">
]>
<svg version="1.1"
	 xmlns="http://www.w3.org/2000/svg" xmlns:xlink="http://www.w3.org/1999/xlink" xmlns:a="http://ns.adobe.com/AdobeSVGViewerExtensions/3.0/"
	 x="0px" y="0px" width="50px" height="50px" viewBox="-5.001 -5 50 50"
	 overflow="visible" enable-background="new -5.001 -5 50 50" xml:space="preserve">
<defs>
</defs>
<path d="M38.945,16.41l-5.974-1.1c-0.58-0.107-0.784-0.594-0.455-1.082l3.428-5.081c0.329-0.488,0.258-1.229-0.159-1.646
	l-3.287-3.286c-0.417-0.417-1.157-0.488-1.646-0.159l-5.081,3.428c-0.489,0.329-0.976,0.124-1.082-0.454l-1.101-5.977
	C23.482,0.475,22.913,0,22.324,0h-4.65c-0.589,0-1.158,0.475-1.265,1.054l-1.1,5.976c-0.107,0.579-0.595,0.784-1.083,0.454
	L9.147,4.057C8.659,3.728,7.919,3.799,7.502,4.216L4.214,7.503C3.797,7.92,3.726,8.661,4.056,9.148l3.427,5.08
	c0.329,0.488,0.124,0.975-0.455,1.082l-5.975,1.1C0.474,16.518,0,17.087,0,17.676v4.649c0,0.589,0.474,1.158,1.053,1.266l5.977,1.1
	c0.579,0.106,0.783,0.594,0.454,1.082l-3.428,5.081c-0.33,0.489-0.259,1.229,0.158,1.646l3.288,3.288
	c0.417,0.417,1.157,0.488,1.646,0.158l5.079-3.426c0.488-0.331,0.976-0.125,1.083,0.453l1.1,5.975
	C16.516,39.526,17.085,40,17.674,40h4.65c0.589,0,1.158-0.474,1.265-1.053l1.101-5.975c0.106-0.579,0.593-0.784,1.082-0.454
	l5.081,3.427c0.488,0.33,1.229,0.259,1.646-0.158l3.287-3.286c0.417-0.418,0.488-1.158,0.158-1.646l-3.428-5.082
	c-0.329-0.488-0.125-0.976,0.454-1.082l5.976-1.1c0.58-0.107,1.053-0.677,1.053-1.266v-4.649
	C39.998,17.087,39.525,16.518,38.945,16.41z M19.996,27.244c-3.991,0-7.227-3.235-7.227-7.228c0-3.991,3.235-7.227,7.227-7.227
	s7.228,3.235,7.228,7.227C27.224,24.009,23.987,27.244,19.996,27.244z"/>
</svg>
