<?xml version="1.0" encoding="utf-8"?>
<!-- Generator: Adobe Illustrator 15.0.0, SVG Export Plug-In  -->
<!DOCTYPE svg PUBLIC "-//W3C//DTD SVG 1.1//EN" "http://www.w3.org/Graphics/SVG/1.1/DTD/svg11.dtd" [
	<!ENTITY ns_flows "http://ns.adobe.com/Flows/1.0/">
]>
<svg version="1.1"
	 xmlns="http://www.w3.org/2000/svg" xmlns:xlink="http://www.w3.org/1999/xlink" xmlns:a="http://ns.adobe.com/AdobeSVGViewerExtensions/3.0/"
	 x="0px" y="0px" width="50px" height="50px" viewBox="-5 -6.308 50 50"
	 overflow="visible" enable-background="new -5 -6.308 50 50" xml:space="preserve">
<defs>
</defs>
<path d="M29.816,0.002c-0.069,0-0.12-0.003-0.189-0.001C29.57,0,29.498,0.003,29.44,0.003c-5.625,0-10.183,4.56-10.183,10.185
	c0,0,0,3.539,0,6.134H0v21.062h28.046V16.321h-3.693c0-2.586,0-6.134,0-6.134c0-2.806,2.283-5.087,5.088-5.087
	c0.08,0,0.248-0.004,0.248-0.004s0.086,0.003,0.128,0.003c2.806,0,5.089,2.282,5.089,5.087c0,0-0.001,1.076-0.001,2.462h1.704v0.65
	L34.904,14.9c0,0.49,0,0.973,0,1.421H40c0-2.57,0-6.135,0-6.135C40,4.562,35.44,0.002,29.816,0.002z M17.169,33.562h-6.385
	l1.563-6.836c-0.935-0.557-1.563-1.574-1.563-2.742c0-1.764,1.429-3.193,3.193-3.193c1.763,0,3.192,1.43,3.192,3.193
	c0,1.172-0.634,2.195-1.575,2.75L17.169,33.562z"/>
</svg>
