<?xml version="1.0" encoding="utf-8"?>
<!-- Generator: Adobe Illustrator 15.0.0, SVG Export Plug-In  -->
<!DOCTYPE svg PUBLIC "-//W3C//DTD SVG 1.1//EN" "http://www.w3.org/Graphics/SVG/1.1/DTD/svg11.dtd" [
	<!ENTITY ns_flows "http://ns.adobe.com/Flows/1.0/">
]>
<svg version="1.1"
	 xmlns="http://www.w3.org/2000/svg" xmlns:xlink="http://www.w3.org/1999/xlink" xmlns:a="http://ns.adobe.com/AdobeSVGViewerExtensions/3.0/"
	 x="0px" y="0px" width="50px" height="50px" viewBox="-5 -2.412 50 50"
	 overflow="visible" enable-background="new -5 -2.412 50 50" xml:space="preserve">
<defs>
</defs>
<path d="M3.957,0v2.903H2.419C0.904,2.903,0,3.859,0,5.459c0,1.6,0.904,2.555,2.419,2.555h1.538v1.733H2.419
	C0.904,9.748,0,10.702,0,12.303s0.904,2.557,2.419,2.557h1.538v1.732H2.419C0.904,16.592,0,17.546,0,19.146
	c0,1.601,0.904,2.557,2.419,2.557h1.538v0.614v0.542v0.614H2.419C0.904,23.473,0,24.43,0,26.03s0.904,2.557,2.419,2.557h1.538v1.732
	H2.419C0.904,30.319,0,31.274,0,32.874c0,1.602,0.904,2.557,2.419,2.557h1.538v1.732H2.419C0.904,37.163,0,38.118,0,39.717
	c0,1.602,0.904,2.557,2.419,2.557h1.538v2.902H40V22.859v-0.542V0H3.957z M6.533,40.905H2.419c-0.748,0-1.05-0.342-1.05-1.188
	s0.302-1.186,1.05-1.186h4.114c0.746,0,1.05,0.34,1.05,1.186S7.279,40.905,6.533,40.905z M6.533,34.063H2.419
	c-0.748,0-1.05-0.344-1.05-1.189s0.302-1.188,1.05-1.188h4.114c0.746,0,1.05,0.342,1.05,1.188S7.279,34.063,6.533,34.063z
	 M6.533,27.217H2.419c-0.748,0-1.05-0.342-1.05-1.188c0-0.844,0.302-1.186,1.05-1.186h4.114c0.746,0,1.05,0.342,1.05,1.186
	C7.583,26.875,7.279,27.217,6.533,27.217z M6.533,20.333H2.419c-0.748,0-1.05-0.342-1.05-1.188c0-0.844,0.302-1.187,1.05-1.187
	h4.114c0.746,0,1.05,0.343,1.05,1.187C7.583,19.992,7.279,20.333,6.533,20.333z M6.533,13.491H2.419c-0.748,0-1.05-0.343-1.05-1.188
	c0-0.844,0.302-1.188,1.05-1.188h4.114c0.746,0,1.05,0.343,1.05,1.188C7.583,13.148,7.279,13.491,6.533,13.491z M6.533,6.646H2.419
	c-0.748,0-1.05-0.341-1.05-1.187c0-0.844,0.302-1.188,1.05-1.188h4.114c0.746,0,1.05,0.344,1.05,1.188
	C7.583,6.305,7.279,6.646,6.533,6.646z M33.556,32.192L11.93,32.194v-2.227c0,0,0.013-1.311,2.698-2.508
	c1.298-0.58,3.222-2.064,6.069-2.588c-0.732-0.781-1.279-2.008-1.854-3.472c-0.332-0.845-0.277-1.565-0.277-2.592
	c0-0.754-0.143-1.964,0.044-2.629c0.632-2.257,2.232-2.882,4.107-2.882s3.474,0.622,4.107,2.875c0.188,0.667,0.044,1.88,0.044,2.636
	c0,1.024,0.058,1.743-0.273,2.586c-0.571,1.456-1.128,2.685-1.861,3.47c2.87,0.514,4.808,2.01,6.114,2.59
	c2.696,1.197,2.708,2.514,2.708,2.514V32.192z"/>
</svg>
