<?xml version="1.0" encoding="utf-8"?>
<!-- Generator: Adobe Illustrator 15.0.0, SVG Export Plug-In  -->
<!DOCTYPE svg PUBLIC "-//W3C//DTD SVG 1.1//EN" "http://www.w3.org/Graphics/SVG/1.1/DTD/svg11.dtd" [
	<!ENTITY ns_flows "http://ns.adobe.com/Flows/1.0/">
]>
<svg version="1.1"
	 xmlns="http://www.w3.org/2000/svg" xmlns:xlink="http://www.w3.org/1999/xlink" xmlns:a="http://ns.adobe.com/AdobeSVGViewerExtensions/3.0/"
	 x="0px" y="0px" width="50px" height="50px" viewBox="-5 -5 50 50" overflow="visible" enable-background="new -5 -5 50 50"
	 xml:space="preserve">
<defs>
</defs>
<path fill="#231F20" d="M10.196,37.431c0.813,0.459,1.663,0.861,2.542,1.204C14.99,39.513,17.438,40,20,40
	c5.138,0,9.822-1.939,13.364-5.124c0.689-0.619,1.333-1.286,1.931-1.995C38.229,29.401,40,24.908,40,20
	c0-2.92-0.631-5.691-1.756-8.192c-0.379-0.842-0.813-1.653-1.3-2.429C33.405,3.747,27.142,0,20,0c-0.77,0-1.527,0.048-2.273,0.132
	c-1.052,0.12-2.078,0.321-3.073,0.596C7.489,2.713,1.938,8.579,0.417,15.925C0.225,16.85,0.101,17.8,0.041,18.767
	C0.017,19.175,0,19.586,0,20C0,27.482,4.112,34.001,10.196,37.431z M20,37.777c-1.862,0-3.658-0.289-5.347-0.822l14.284-12.53
	l3.5,8.262C29.229,35.833,24.838,37.777,20,37.777z M37.777,20c0,3.944-1.293,7.592-3.475,10.545l-7.559-17.788l9.126-0.753
	C37.088,14.409,37.777,17.125,37.777,20z M17.184,2.448C18.102,2.301,19.042,2.222,20,2.222c5.924,0,11.176,2.915,14.408,7.383
	l-19.307,1.727L17.184,2.448z M14.104,3.231l-4.035,18.416l-7.613-4.513C3.51,10.666,8.063,5.361,14.104,3.231z M18.866,29.817
	l-6.882,6.043c-5.772-2.93-9.743-8.913-9.761-15.812L18.866,29.817z"/>
</svg>
