<?xml version="1.0" encoding="utf-8"?>
<!-- Generator: Adobe Illustrator 15.0.0, SVG Export Plug-In  -->
<!DOCTYPE svg PUBLIC "-//W3C//DTD SVG 1.1//EN" "http://www.w3.org/Graphics/SVG/1.1/DTD/svg11.dtd" [
	<!ENTITY ns_flows "http://ns.adobe.com/Flows/1.0/">
]>
<svg version="1.1"
	 xmlns="http://www.w3.org/2000/svg" xmlns:xlink="http://www.w3.org/1999/xlink" xmlns:a="http://ns.adobe.com/AdobeSVGViewerExtensions/3.0/"
	 x="0px" y="0px" width="50px" height="50px" viewBox="-7.453 -5 50 50"
	 overflow="visible" enable-background="new -7.453 -5 50 50" xml:space="preserve">
<defs>
</defs>
<path d="M23.628,0v40h11.466V0H23.628z M31.86,29.954h-5.022v-5.023h5.022V29.954z M31.86,19.908h-5.022v-5.023h5.022V19.908z
	 M31.86,9.884h-5.022V4.861h5.022V9.884z"/>
<path d="M16.745,7.07H9.303v2.791H4.744V5.396H3.07v4.465H0V40h20.093V9.861h-3.348V7.07z M8.232,29.954H3.21v-5.023h5.022V29.954z
	 M8.232,19.908H3.21v-5.023h5.022V19.908z M16.744,29.954h-5.023v-5.023h5.023V29.954z M16.744,19.908h-5.023v-5.023h5.023V19.908z"
	/>
</svg>
