<?xml version="1.0" encoding="utf-8"?>
<!-- Generator: Adobe Illustrator 15.0.0, SVG Export Plug-In  -->
<!DOCTYPE svg PUBLIC "-//W3C//DTD SVG 1.1//EN" "http://www.w3.org/Graphics/SVG/1.1/DTD/svg11.dtd" [
	<!ENTITY ns_flows "http://ns.adobe.com/Flows/1.0/">
]>
<svg version="1.1"
	 xmlns="http://www.w3.org/2000/svg" xmlns:xlink="http://www.w3.org/1999/xlink" xmlns:a="http://ns.adobe.com/AdobeSVGViewerExtensions/3.0/"
	 x="0px" y="0px" width="50px" height="50px" viewBox="-5 -5 50 50" overflow="visible" enable-background="new -5 -5 50 50"
	 xml:space="preserve">
<defs>
</defs>
<path d="M20,0C8.955,0,0,8.954,0,20s8.955,20,20,20c11.046,0,20-8.954,20-20S31.046,0,20,0z M32.775,14.732L18.734,28.805
	c-0.404,0.406-1.203,0.738-1.776,0.738h-1.213c-0.572,0-1.371-0.333-1.775-0.738l-6.612-6.643c-0.404-0.405-0.403-1.068,0.001-1.473
	l2.602-2.603c0.405-0.406,1.067-0.406,1.473-0.001l4.225,4.215c0.406,0.405,1.068,0.404,1.472,0L28.71,10.695
	c0.404-0.405,1.067-0.407,1.474-0.003l2.588,2.57C33.178,13.666,33.18,14.326,32.775,14.732z"/>
</svg>
