<?xml version="1.0" encoding="utf-8"?>
<!-- Generator: Adobe Illustrator 15.0.0, SVG Export Plug-In  -->
<!DOCTYPE svg PUBLIC "-//W3C//DTD SVG 1.1//EN" "http://www.w3.org/Graphics/SVG/1.1/DTD/svg11.dtd" [
	<!ENTITY ns_flows "http://ns.adobe.com/Flows/1.0/">
]>
<svg version="1.1"
	 xmlns="http://www.w3.org/2000/svg" xmlns:xlink="http://www.w3.org/1999/xlink" xmlns:a="http://ns.adobe.com/AdobeSVGViewerExtensions/3.0/"
	 x="0px" y="0px" width="50px" height="50px" viewBox="-4.168 -9.667 50 50"
	 overflow="visible" enable-background="new -4.168 -9.667 50 50" xml:space="preserve">
<defs>
</defs>
<g>
	<defs>
		<rect id="SVGID_1_" x="0" width="41.664" height="30.666"/>
	</defs>
	<clipPath id="SVGID_2_">
		<use xlink:href="#SVGID_1_"  overflow="visible"/>
	</clipPath>
	<path clip-path="url(#SVGID_2_)" d="M0.484,18.849c-0.647-0.648-0.646-1.712,0.002-2.359l4.166-4.165
		c0.648-0.648,1.709-0.648,2.358-0.001l6.765,6.749c0.649,0.647,1.709,0.646,2.356-0.002L34.67,0.489
		c0.648-0.649,1.709-0.652,2.359-0.007l4.145,4.116c0.65,0.646,0.652,1.705,0.006,2.354L18.699,29.486
		c-0.647,0.648-1.927,1.18-2.843,1.18h-1.942c-0.917,0-2.196-0.532-2.842-1.182L0.484,18.849z"/>
</g>
</svg>
