<?xml version="1.0" encoding="utf-8"?>
<!-- Generator: Adobe Illustrator 15.0.0, SVG Export Plug-In  -->
<!DOCTYPE svg PUBLIC "-//W3C//DTD SVG 1.1//EN" "http://www.w3.org/Graphics/SVG/1.1/DTD/svg11.dtd" [
	<!ENTITY ns_flows "http://ns.adobe.com/Flows/1.0/">
]>
<svg version="1.1"
	 xmlns="http://www.w3.org/2000/svg" xmlns:xlink="http://www.w3.org/1999/xlink" xmlns:a="http://ns.adobe.com/AdobeSVGViewerExtensions/3.0/"
	 x="0px" y="0px" width="50px" height="50px" viewBox="-9.996 -5 50 50"
	 overflow="visible" enable-background="new -9.996 -5 50 50" xml:space="preserve">
<defs>
</defs>
<path d="M26.051,17.463v-6.565c0-6.017-4.879-10.896-10.897-10.896c-0.075,0-0.129-0.004-0.203-0.002
	c-0.061-0.001-0.138,0.003-0.199,0.003C8.733,0.003,3.856,4.882,3.856,10.9v6.563H0V40h30.008V17.463H26.051z M18.411,35.868h-6.805
	l1.667-7.286c-0.997-0.593-1.667-1.679-1.667-2.924c0-1.879,1.523-3.402,3.402-3.402c1.879,0,3.403,1.523,3.403,3.402
	c0,1.251-0.676,2.34-1.68,2.932L18.411,35.868z M20.598,17.463H9.308V10.9c0-3.002,2.442-5.443,5.444-5.443
	c0.086,0,0.266-0.004,0.266-0.004s0.091,0.003,0.137,0.003c3.002,0,5.444,2.441,5.444,5.443V17.463z"/>
</svg>
