<?xml version="1.0" encoding="utf-8"?>
<!-- Generator: Adobe Illustrator 15.0.0, SVG Export Plug-In  -->
<!DOCTYPE svg PUBLIC "-//W3C//DTD SVG 1.1//EN" "http://www.w3.org/Graphics/SVG/1.1/DTD/svg11.dtd" [
	<!ENTITY ns_flows "http://ns.adobe.com/Flows/1.0/">
]>
<svg version="1.1"
	 xmlns="http://www.w3.org/2000/svg" xmlns:xlink="http://www.w3.org/1999/xlink" xmlns:a="http://ns.adobe.com/AdobeSVGViewerExtensions/3.0/"
	 x="0px" y="0px" width="50px" height="50px" viewBox="-5 -10.555 50 50"
	 overflow="visible" enable-background="new -5 -10.555 50 50" xml:space="preserve">
<defs>
</defs>
<mask id="menu_icon" maskUnits="objectBoundingBox">
  <path fill="#FFFFFF" d="M37.486,0H2.515C1.126,0,0,1.126,0,2.515c0,1.389,1.126,2.515,2.515,2.515h34.972
  	C38.875,5.029,40,3.904,40,2.515C40,1.126,38.875,0,37.486,0z"/>
  <path fill="#FFFFFF" d="M37.486,11.93H2.515C1.126,11.93,0,13.057,0,14.445c0,1.389,1.126,2.514,2.515,2.514h34.972
  	c1.389,0,2.514-1.125,2.514-2.514C40,13.057,38.875,11.93,37.486,11.93z"/>
  <path fill="#FFFFFF" d="M37.486,23.861H2.515C1.126,23.861,0,24.986,0,26.376c0,1.388,1.126,2.515,2.515,2.515h34.972
  	c1.389,0,2.514-1.127,2.514-2.515C40,24.986,38.875,23.861,37.486,23.861z"/>
</mask>
<path fill="#231F20" d="M37.486,0H2.515C1.126,0,0,1.126,0,2.515c0,1.389,1.126,2.515,2.515,2.515h34.972
	C38.875,5.029,40,3.904,40,2.515C40,1.126,38.875,0,37.486,0z"/>
<path fill="#231F20" d="M37.486,11.93H2.515C1.126,11.93,0,13.057,0,14.445c0,1.389,1.126,2.514,2.515,2.514h34.972
	c1.389,0,2.514-1.125,2.514-2.514C40,13.057,38.875,11.93,37.486,11.93z"/>
<path fill="#231F20" d="M37.486,23.861H2.515C1.126,23.861,0,24.986,0,26.376c0,1.388,1.126,2.515,2.515,2.515h34.972
	c1.389,0,2.514-1.127,2.514-2.515C40,24.986,38.875,23.861,37.486,23.861z"/>
</svg>
