<?xml version="1.0" encoding="utf-8"?>
<!-- Generator: Adobe Illustrator 15.0.0, SVG Export Plug-In  -->
<!DOCTYPE svg PUBLIC "-//W3C//DTD SVG 1.1//EN" "http://www.w3.org/Graphics/SVG/1.1/DTD/svg11.dtd" [
	<!ENTITY ns_flows "http://ns.adobe.com/Flows/1.0/">
]>
<svg version="1.1"
	 xmlns="http://www.w3.org/2000/svg" xmlns:xlink="http://www.w3.org/1999/xlink" xmlns:a="http://ns.adobe.com/AdobeSVGViewerExtensions/3.0/"
	 x="0px" y="0px" width="50px" height="50px" viewBox="-5 -5 50 50" overflow="visible" enable-background="new -5 -5 50 50"
	 xml:space="preserve">
<defs>
</defs>
<path fill="#231F20" d="M20.001,0C8.954,0,0,8.955,0,20s8.954,20.001,20.001,20.001C31.046,40.001,40,31.046,40,20
	S31.046,0,20.001,0z M20.001,37.125c-9.466,0-17.139-7.673-17.139-17.138c0-9.466,7.673-17.138,17.139-17.138
	c9.465,0,17.137,7.672,17.137,17.138C37.138,29.452,29.466,37.125,20.001,37.125z"/>
<path d="M20.881,21.975v5.312c0.891-0.245,2.058-0.829,2.058-2.518C22.938,22.988,21.587,22.343,20.881,21.975z"/>
<path d="M17.32,15.067c0,1.659,1.411,2.303,2.087,2.611v-5.005C18.794,12.827,17.32,13.257,17.32,15.067z"/>
<path d="M20.001,3.956c-8.854,0.016-16.015,7.177-16.03,16.03c0.015,8.853,7.176,16.012,16.03,16.03
	c8.852-0.018,16.012-7.177,16.027-16.03C36.013,11.133,28.853,3.972,20.001,3.956z M21.096,30.602v1.381
	c0,0.523-0.093,0.614-0.645,0.614h-0.614c-0.552,0-0.644-0.091-0.644-0.614v-1.381c-1.044,0-5.342-0.706-5.342-1.626
	c0-0.094,0-0.094,0.062-0.277l0.89-2.578c0.03-0.062,0.154-0.247,0.277-0.247c0.184,0,2.241,1.198,4.114,1.413v-6.018
	c-1.873-0.829-5.403-1.903-5.403-5.956c0-4.513,3.99-5.801,5.403-5.864V7.945c0-0.523,0.092-0.614,0.644-0.614h0.614
	c0.552,0,0.645,0.091,0.645,0.614v1.504c0.891,0.062,4.82,0.737,4.82,1.78c0,0.124-0.03,0.215-0.093,0.339l-0.951,2.088
	c-0.062,0.154-0.153,0.245-0.276,0.245c-0.184,0-2.18-1.228-3.5-1.228v5.679c1.996,0.982,5.372,2.303,5.372,6.233
	C26.468,28.851,23.122,30.264,21.096,30.602z"/>
</svg>
