<?xml version="1.0" encoding="utf-8"?>
<!-- Generator: Adobe Illustrator 15.0.0, SVG Export Plug-In  -->
<!DOCTYPE svg PUBLIC "-//W3C//DTD SVG 1.1//EN" "http://www.w3.org/Graphics/SVG/1.1/DTD/svg11.dtd" [
	<!ENTITY ns_flows "http://ns.adobe.com/Flows/1.0/">
]>
<svg version="1.1"
	 xmlns="http://www.w3.org/2000/svg" xmlns:xlink="http://www.w3.org/1999/xlink" xmlns:a="http://ns.adobe.com/AdobeSVGViewerExtensions/3.0/"
	 x="0px" y="0px" width="50px" height="50px" viewBox="-5 -10.481 50 50"
	 overflow="visible" enable-background="new -5 -10.481 50 50" xml:space="preserve">
<defs>
</defs>
<path d="M26.872,25.999h-3.021h-2.769v-2.77v-4.567V18.09c-0.454-0.121-0.921-0.229-1.408-0.316c1.128-1.207,1.981-3.095,2.858-5.33
	c0.509-1.296,0.422-2.4,0.422-3.974c0-1.162,0.22-3.026-0.069-4.051C21.912,0.956,19.455,0,16.575,0c-2.881,0-5.342,0.96-6.312,4.43
	c-0.286,1.021-0.067,2.882-0.067,4.04c0,1.576-0.085,2.685,0.425,3.983c0.885,2.246,1.726,4.132,2.849,5.333
	c-4.374,0.804-7.329,3.085-9.324,3.975C0.02,23.6,0,25.615,0,25.615v3.422l26.872-0.003v-0.014V25.999z"/>
<polygon points="40,18.662 34.21,18.662 34.21,12.871 29.641,12.871 29.641,18.662 23.851,18.662 23.851,23.229 29.641,23.229 
	29.641,29.021 34.21,29.021 34.21,23.229 40,23.23 "/>
</svg>
