<?xml version="1.0" encoding="utf-8"?>
<!-- Generator: Adobe Illustrator 15.0.0, SVG Export Plug-In  -->
<!DOCTYPE svg PUBLIC "-//W3C//DTD SVG 1.1//EN" "http://www.w3.org/Graphics/SVG/1.1/DTD/svg11.dtd" [
	<!ENTITY ns_flows "http://ns.adobe.com/Flows/1.0/">
]>
<svg version="1.1"
	 xmlns="http://www.w3.org/2000/svg" xmlns:xlink="http://www.w3.org/1999/xlink" xmlns:a="http://ns.adobe.com/AdobeSVGViewerExtensions/3.0/"
	 x="0px" y="0px" width="50px" height="50px" viewBox="-3.874 -6.54 50 50"
	 overflow="visible" enable-background="new -3.874 -6.54 50 50" xml:space="preserve">
<defs>
</defs>
<path d="M36.961,27.658c-2.551-1.134-6.338-4.056-11.944-5.06c1.434-1.535,2.52-3.935,3.636-6.778
	c0.646-1.647,0.535-3.052,0.535-5.052c0-1.478,0.278-3.848-0.089-5.151C27.862,1.215,24.738,0,21.077,0
	c-3.664,0-6.792,1.221-8.026,5.631c-0.364,1.299-0.085,3.665-0.085,5.138c0,2.004-0.109,3.413,0.54,5.063
	c1.125,2.858,2.193,5.254,3.622,6.783c-5.562,1.022-9.319,3.922-11.855,5.053C0.026,30.008,0,32.569,0,32.569v4.351l42.252-0.005
	v-4.346C42.252,32.569,42.229,29.999,36.961,27.658z"/>
</svg>
