<?xml version="1.0" encoding="utf-8"?>
<!-- Generator: Adobe Illustrator 15.0.0, SVG Export Plug-In  -->
<!DOCTYPE svg PUBLIC "-//W3C//DTD SVG 1.1//EN" "http://www.w3.org/Graphics/SVG/1.1/DTD/svg11.dtd" [
	<!ENTITY ns_flows "http://ns.adobe.com/Flows/1.0/">
]>
<svg version="1.1"
	 xmlns="http://www.w3.org/2000/svg" xmlns:xlink="http://www.w3.org/1999/xlink" xmlns:a="http://ns.adobe.com/AdobeSVGViewerExtensions/3.0/"
	 x="0px" y="0px" width="50px" height="50px" viewBox="-5 -5 50 50" overflow="visible" enable-background="new -5 -5 50 50"
	 xml:space="preserve">
<defs>
</defs>
<path d="M31.749,13.189h-5.003c-0.004-0.007-0.006-0.015-0.009-0.022l-0.718-1.434c-0.186-0.37-0.674-0.671-1.087-0.671h-9.632
	c-0.413,0-0.901,0.301-1.086,0.671l-0.718,1.434c-0.003,0.007-0.005,0.015-0.008,0.022H8.251c-0.414,0-0.751,0.338-0.751,0.751
	v14.249c0,0.413,0.337,0.749,0.751,0.749h23.498c0.413,0,0.751-0.336,0.751-0.749V13.94C32.5,13.527,32.162,13.189,31.749,13.189z
	 M20.015,26.777c-3.254,0-5.892-2.637-5.892-5.893c0-3.253,2.638-5.891,5.892-5.891c3.253,0,5.893,2.638,5.893,5.891
	C25.907,24.141,23.268,26.777,20.015,26.777z"/>
<path d="M20.015,17.078c-2.1,0-3.808,1.708-3.808,3.807c0,2.1,1.708,3.809,3.808,3.809s3.809-1.709,3.809-3.809
	C23.823,18.786,22.114,17.078,20.015,17.078z"/>
<path d="M20,0C8.955,0,0,8.954,0,20s8.955,20,20,20c11.046,0,20-8.954,20-20S31.046,0,20,0z M35,20c0,3.231-1.031,6.225-2.775,8.677
	L11.324,7.775C13.775,6.031,16.769,5,20,5C28.271,5,35,11.729,35,20z M5,20c0-3.255,1.045-6.268,2.813-8.729l20.916,20.916
	C26.269,33.954,23.255,35,20,35C11.729,35,5,28.271,5,20z"/>
</svg>
