<?xml version="1.0" encoding="utf-8"?>
<!-- Generator: Adobe Illustrator 15.0.0, SVG Export Plug-In  -->
<!DOCTYPE svg PUBLIC "-//W3C//DTD SVG 1.1//EN" "http://www.w3.org/Graphics/SVG/1.1/DTD/svg11.dtd" [
	<!ENTITY ns_flows "http://ns.adobe.com/Flows/1.0/">
]>
<svg version="1.1"
	 xmlns="http://www.w3.org/2000/svg" xmlns:xlink="http://www.w3.org/1999/xlink" xmlns:a="http://ns.adobe.com/AdobeSVGViewerExtensions/3.0/"
	 x="0px" y="0px" width="50px" height="50px" viewBox="-5 -4.979 50 50"
	 overflow="visible" enable-background="new -5 -4.979 50 50" xml:space="preserve">
<defs>
</defs>
<path d="M39.601,32.143l-8.79-5.179c-0.457-0.233-1.127-0.127-1.489,0.236l-2.586,2.586c-0.362,0.361-1.079,0.663-1.592,0.669
	c0,0-3.304,0.038-9.448-6.106s-6.115-9.46-6.115-9.46c0.005-0.513,0.305-1.229,0.667-1.59l2.205-2.204
	c0.362-0.363,0.484-1.041,0.271-1.508L7.874,0.469C7.66,0.002,7.188-0.082,6.826,0.279L0.813,6.277
	C0.45,6.639,0.099,7.352,0.03,7.859c0,0-1.173,8.765,11.107,21.046c12.281,12.28,21.046,11.107,21.046,11.107
	c0.508-0.068,1.221-0.42,1.582-0.782l6.006-6.005C40.134,32.863,40.057,32.375,39.601,32.143z"/>
<path d="M18.143,15.701c1.289,0.322,2.51,0.979,3.518,1.986c1.013,1.013,1.671,2.243,1.991,3.54h2.455
	c-0.255-2.009-1.152-3.866-2.6-5.319c-1.464-1.472-3.338-2.378-5.364-2.621V15.701z"/>
<path d="M36.553,21.229l2.887-0.001C39.229,10.218,29.158,0.168,18.144,0l-0.001,2.822C28.02,3.371,35.96,11.319,36.553,21.229z"/>
<path d="M29.888,21.228l2.893,0.001C32.2,13.396,25.943,7.133,18.143,6.594v2.915C24.355,10.036,29.323,15.001,29.888,21.228z"/>
</svg>
