<?xml version="1.0" encoding="utf-8"?>
<!-- Generator: Adobe Illustrator 15.0.0, SVG Export Plug-In  -->
<!DOCTYPE svg PUBLIC "-//W3C//DTD SVG 1.1//EN" "http://www.w3.org/Graphics/SVG/1.1/DTD/svg11.dtd" [
	<!ENTITY ns_flows "http://ns.adobe.com/Flows/1.0/">
]>
<svg version="1.1"
	 xmlns="http://www.w3.org/2000/svg" xmlns:xlink="http://www.w3.org/1999/xlink" xmlns:a="http://ns.adobe.com/AdobeSVGViewerExtensions/3.0/"
	 x="0px" y="0px" width="50px" height="50px" viewBox="-5 -5.006 50 50"
	 overflow="visible" enable-background="new -5 -5.006 50 50" xml:space="preserve">
<defs>
</defs>
<path d="M39.601,32.088l-8.79-5.179c-0.457-0.233-1.127-0.127-1.489,0.235l-2.586,2.586c-0.362,0.362-1.079,0.664-1.592,0.67
	c0,0-3.304,0.038-9.448-6.107c-6.145-6.144-6.115-9.459-6.115-9.459c0.005-0.513,0.306-1.229,0.668-1.591l2.204-2.204
	c0.362-0.363,0.484-1.04,0.271-1.507L7.874,0.413C7.66-0.053,7.188-0.138,6.826,0.225L0.813,6.223
	C0.45,6.584,0.099,7.296,0.03,7.805c0,0-1.173,8.765,11.107,21.045c12.281,12.281,21.046,11.108,21.046,11.108
	c0.508-0.068,1.221-0.421,1.582-0.782l6.006-6.006C40.134,32.808,40.057,32.32,39.601,32.088z"/>
</svg>
