<?xml version="1.0" encoding="utf-8"?>
<!-- Generator: Adobe Illustrator 15.0.0, SVG Export Plug-In  -->
<!DOCTYPE svg PUBLIC "-//W3C//DTD SVG 1.1//EN" "http://www.w3.org/Graphics/SVG/1.1/DTD/svg11.dtd" [
	<!ENTITY ns_flows "http://ns.adobe.com/Flows/1.0/">
]>
<svg version="1.1"
	 xmlns="http://www.w3.org/2000/svg" xmlns:xlink="http://www.w3.org/1999/xlink" xmlns:a="http://ns.adobe.com/AdobeSVGViewerExtensions/3.0/"
	 x="0px" y="0px" width="50px" height="50px" viewBox="-11.5 -5.808 50 50"
	 overflow="visible" enable-background="new -11.5 -5.808 50 50" xml:space="preserve">
<defs>
</defs>
<g>
	<defs>
		<rect id="SVGID_1_" width="25.052" height="43.692"/>
	</defs>
	<clipPath id="SVGID_2_">
		<use xlink:href="#SVGID_1_"  overflow="visible"/>
	</clipPath>
	<path clip-path="url(#SVGID_2_)" d="M8.773,30.188c-0.894,0.822-1.338,1.995-1.329,3.293c-0.01,1.299,0.435,2.473,1.323,3.311
		c0.865,0.836,2.041,1.246,3.347,1.246c0.011,0,0.021,0,0.032-0.001c1.373,0.005,2.592-0.394,3.477-1.247
		c0.885-0.836,1.331-2.01,1.32-3.309c0.011-1.298-0.436-2.471-1.328-3.293c-0.889-0.832-2.101-1.222-3.469-1.217
		C10.832,28.966,9.648,29.366,8.773,30.188 M24.306,9.311c0.011-2.672-0.958-4.945-2.856-6.561c-1.9-1.633-4.495-2.406-7.656-2.404
		c-2.327,0-4.345,0.28-6.057,0.866C6.078,1.783,4.595,2.509,3.3,3.396L2.694,3.811l3.193,6.131l0.771-0.534
		c0.385-0.266,0.83-0.529,1.339-0.791C8.497,8.359,9.021,8.132,9.57,7.933c0.542-0.193,1.083-0.345,1.623-0.452
		c0.532-0.103,1.03-0.151,1.486-0.151c1.513-0.007,2.395,0.339,2.759,0.75c0.465,0.509,0.721,1.168,0.727,2.151
		c-0.004,0.739-0.174,1.312-0.492,1.794c-0.379,0.568-0.857,1.126-1.449,1.666c-0.621,0.574-1.292,1.172-2.013,1.798
		c-0.787,0.683-1.482,1.485-2.085,2.397c-0.623,0.943-1.099,2.041-1.44,3.291c-0.242,0.87-0.353,1.84-0.353,2.907
		c0,0.533,0.03,1.091,0.085,1.674l0.071,0.749h0.753h6.201V25.68c0-1.267,0.214-2.249,0.585-2.958
		c0.418-0.808,0.92-1.504,1.508-2.111c0.611-0.625,1.292-1.22,2.033-1.776c0.824-0.617,1.58-1.331,2.264-2.136
		c0.711-0.835,1.297-1.836,1.761-2.987C24.082,12.495,24.306,11.03,24.306,9.311"/>
</g>
</svg>
