<?xml version="1.0" encoding="utf-8"?>
<!-- Generator: Adobe Illustrator 15.0.0, SVG Export Plug-In  -->
<!DOCTYPE svg PUBLIC "-//W3C//DTD SVG 1.1//EN" "http://www.w3.org/Graphics/SVG/1.1/DTD/svg11.dtd" [
	<!ENTITY ns_flows "http://ns.adobe.com/Flows/1.0/">
]>
<svg version="1.1"
	 xmlns="http://www.w3.org/2000/svg" xmlns:xlink="http://www.w3.org/1999/xlink" xmlns:a="http://ns.adobe.com/AdobeSVGViewerExtensions/3.0/"
	 x="0px" y="0px" width="50px" height="50px" viewBox="-9.634 -5 50 50"
	 overflow="visible" enable-background="new -9.634 -5 50 50" xml:space="preserve">
<defs>
</defs>
<path d="M17.979,6.888c4.635-1.254,8.849,4.111,8.849,4.111l3.904-0.053c0,0-5.049-10.746-11.814-10.746c-2.445,0-6.06,0-8.899,0
	c-0.615,0-1.199,1.139-1.717,1.066C6.854,1.062,5.919,0.585,5.698,0.463C4.911-0.054,3.582,0.002,2.462,0.002H2.045
	C0.333,0.002,0-0.136,0,1.85v5.416c0,1.985,0.333,1.847,2.045,1.847h0.417c1.262,0,2.791,0.073,3.508-0.684
	C6.634,7.974,8.119,7.145,9.628,7.59c1.879,0.71,1.942,2.427,2.107,3.255v8.466c-0.852,0.442-1.429,1.123-1.429,2.046
	c0,0.111,0,0.27,0,0.463c0,0,0,11.957,0,15.059c0,0.195,0,0.354,0,0.463c0,3.545,8.479,3.545,8.479,0c0-0.109,0-0.268,0-0.463
	c0-3.111,0-15.059,0-15.059c0-0.195,0-0.352,0-0.463c0-0.923-0.579-1.604-1.43-2.047V9.089C17.449,8.019,17.585,6.994,17.979,6.888z
	"/>
</svg>
