<?xml version="1.0" encoding="utf-8"?>
<!-- Generator: Adobe Illustrator 15.0.0, SVG Export Plug-In  -->
<!DOCTYPE svg PUBLIC "-//W3C//DTD SVG 1.1//EN" "http://www.w3.org/Graphics/SVG/1.1/DTD/svg11.dtd" [
	<!ENTITY ns_flows "http://ns.adobe.com/Flows/1.0/">
]>
<svg version="1.1"
	 xmlns="http://www.w3.org/2000/svg" xmlns:xlink="http://www.w3.org/1999/xlink" xmlns:a="http://ns.adobe.com/AdobeSVGViewerExtensions/3.0/"
	 x="0px" y="0px" width="50px" height="50px" viewBox="-9.71 -5 50 50" overflow="visible" enable-background="new -9.71 -5 50 50"
	 xml:space="preserve">
<defs>
</defs>
<path fill="#241F21" d="M10.06,1.03c1.011,0,1.906,0.456,2.521,1.165C12.2,0.929,11.039,0,9.648,0C7.949,0,6.571,1.378,6.571,3.077
	c0,0.341,0.069,0.663,0.172,0.969C6.912,2.355,8.323,1.03,10.06,1.03 M28.862,26.314c-0.229,2.26-0.78,3.989-1.313,5.661
	c-0.294,0.924-0.572,1.797-0.771,2.696c-0.351,1.572-0.552,2.915-0.655,3.7H13.856c-0.109-0.443-0.284-1.054-0.539-1.668
	c-0.399-0.955-1.263-1.574-2.178-2.232c-0.9-0.646-1.92-1.378-2.682-2.553l-0.107-0.131c-1.288-1.288-1.693-2.675-2.163-4.279
	c-0.436-1.488-0.928-3.174-2.209-4.983c-0.281-0.469-0.542-1.062-0.793-1.638c-0.41-0.937-0.8-1.83-1.354-2.399
	c0.21-0.125,0.545-0.252,0.965-0.252c0.725,0,1.444,0.374,2.078,1.081c0.936,1.041,1.676,2.38,2.332,3.563
	c1.09,1.97,2.031,3.671,3.646,3.671c0.062,0,0.126-0.002,0.19-0.009c0.239-0.014,1.257-0.137,1.967-1.18
	c0.975-1.432,0.838-3.87-0.403-7.247c-1.25-3.401-2.336-8.573-2.921-11.351c-0.173-0.823-0.309-1.469-0.4-1.849
	c-0.11-0.453-0.048-0.891,0.169-1.166c0.139-0.177,0.327-0.267,0.613-0.267c0.416,0,0.775,0,1.229,0.905
	c0.69,1.38,4.147,11.752,4.397,12.835c0.194,0.841,0.709,0.966,1,0.966c0.449,0,0.735-0.294,1.011-0.579
	c0.372-0.385,0.833-0.863,1.618-0.863c0.965,0,1.395,0.625,1.857,1.44c0.25,0.442,0.487,0.861,0.988,0.961
	c0.096,0.02,0.238,0.032,0.418,0.041c0.674,0.037,1.805,0.098,2.778,1.501c0.861,1.236,1.3,1.47,1.823,1.667
	c0.229,0.084,0.442,0.164,0.994,0.782c0.101,0.114,0.197,0.213,0.284,0.304C28.895,23.882,29.088,24.081,28.862,26.314
	 M29.636,22.311c-0.074-0.076-0.154-0.157-0.237-0.252c-0.758-0.851-1.192-1.058-1.642-1.226c-0.224-0.083-0.418-0.156-1.055-1.07
	c-1.416-2.034-3.211-2.151-4.002-2.194c-0.035-0.059-0.072-0.126-0.104-0.182c-0.416-0.735-1.283-2.266-3.273-2.266
	c-1.051,0-1.787,0.449-2.289,0.878c-0.873-2.856-3.651-11.073-4.283-12.337c-0.795-1.591-1.802-1.806-2.683-1.806H10.01
	c-0.735,0.002-1.387,0.318-1.836,0.89c-0.528,0.675-0.7,1.607-0.47,2.556c0.09,0.369,0.221,0.998,0.39,1.8
	c0.634,3.016,1.695,8.064,2.986,11.576c1.36,3.695,0.964,5.183,0.606,5.738c-0.293,0.456-0.696,0.499-0.721,0.501l-0.112,0.008
	c-0.656,0-1.452-1.44-2.223-2.832c-0.697-1.258-1.486-2.685-2.544-3.863c-1.203-1.339-2.452-1.62-3.289-1.62
	c-1.281,0-2.488,0.697-2.746,1.587c-0.151,0.52,0.045,1.041,0.5,1.33c0.365,0.231,0.798,1.218,1.145,2.012
	c0.277,0.636,0.564,1.29,0.909,1.856l0.032,0.048c1.135,1.598,1.57,3.085,1.991,4.522c0.482,1.646,0.979,3.346,2.514,4.911
	c0.922,1.39,2.101,2.236,3.049,2.918c0.755,0.541,1.406,1.009,1.626,1.535c0.408,0.979,0.579,1.982,0.581,1.991L12.511,40h14.336
	l0.74-0.001l0.07-0.735c0.002-0.019,0.184-1.883,0.707-4.24c0.183-0.827,0.451-1.666,0.734-2.553
	c0.532-1.67,1.137-3.563,1.383-5.992C30.756,23.763,30.449,23.15,29.636,22.311"/>
</svg>
