<?xml version="1.0" encoding="utf-8"?>
<!-- Generator: Adobe Illustrator 15.0.0, SVG Export Plug-In  -->
<!DOCTYPE svg PUBLIC "-//W3C//DTD SVG 1.1//EN" "http://www.w3.org/Graphics/SVG/1.1/DTD/svg11.dtd" [
	<!ENTITY ns_flows "http://ns.adobe.com/Flows/1.0/">
]>
<svg version="1.1"
	 xmlns="http://www.w3.org/2000/svg" xmlns:xlink="http://www.w3.org/1999/xlink" xmlns:a="http://ns.adobe.com/AdobeSVGViewerExtensions/3.0/"
	 x="0px" y="0px" width="50px" height="50px" viewBox="-8.624 -5 50 50"
	 overflow="visible" enable-background="new -8.624 -5 50 50" xml:space="preserve">
<defs>
</defs>
<path d="M32.628,10.646l-1.508-2.248c-0.264-0.392-0.865-0.713-1.338-0.713h-3.506V4.631c0-0.474-0.273-1.133-0.607-1.468
	l-2.559-2.555C22.777,0.273,22.117,0,21.644,0H11.062c-0.473,0-1.133,0.273-1.468,0.608l-2.37,2.369
	C6.89,3.312,6.616,3.973,6.616,4.444v3.241H2.962c-0.473,0-1.075,0.321-1.339,0.713l-1.499,2.23
	c-0.264,0.392-0.093,0.713,0.38,0.714l2.531,0.001v27.796c0,0.472,0.387,0.859,0.86,0.859h25.142c0.473,0,0.859-0.388,0.859-0.859
	V11.358l2.352,0.001C32.72,11.36,32.892,11.039,32.628,10.646z M10.197,7.497V5.929c0-0.472,0.273-1.132,0.607-1.467l0.273-0.273
	c0.334-0.334,0.994-0.607,1.467-0.607h7.617c0.471,0,1.133,0.273,1.467,0.607l0.459,0.459c0.334,0.334,0.607,0.995,0.607,1.468
	v1.382c0,0.064-0.01,0.127-0.021,0.188H10.22C10.206,7.625,10.197,7.562,10.197,7.497z M26.314,12.208V35.56
	c0,0.472-0.387,0.859-0.859,0.859H7.476c-0.473,0-0.859-0.388-0.859-0.859V12.208c0-0.472,0.387-0.859,0.859-0.859h4.365
	l13.684,0.006C25.964,11.392,26.314,11.759,26.314,12.208z"/>
<path d="M10.956,13.773H9.914c-0.473,0-0.859,0.388-0.859,0.859v18.576c0,0.473,0.387,0.859,0.859,0.859h1.042
	c0.472,0,0.858-0.387,0.858-0.859V14.633C11.814,14.161,11.428,13.773,10.956,13.773z"/>
<path d="M15.883,34.068h1.042c0.473,0,0.859-0.387,0.859-0.859V14.633c0-0.472-0.387-0.859-0.859-0.859h-1.042
	c-0.473,0-0.859,0.388-0.859,0.859v18.576C15.023,33.682,15.41,34.068,15.883,34.068z"/>
<path d="M21.851,34.068h1.043c0.473,0,0.859-0.387,0.859-0.859V14.633c0-0.472-0.387-0.859-0.859-0.859h-1.043
	c-0.473,0-0.859,0.388-0.859,0.859v18.576C20.992,33.682,21.378,34.068,21.851,34.068z"/>
</svg>
