<?xml version="1.0" encoding="utf-8"?>
<!-- Generator: Adobe Illustrator 15.0.0, SVG Export Plug-In  -->
<!DOCTYPE svg PUBLIC "-//W3C//DTD SVG 1.1//EN" "http://www.w3.org/Graphics/SVG/1.1/DTD/svg11.dtd" [
	<!ENTITY ns_flows "http://ns.adobe.com/Flows/1.0/">
]>
<svg version="1.1"
	 xmlns="http://www.w3.org/2000/svg" xmlns:xlink="http://www.w3.org/1999/xlink" xmlns:a="http://ns.adobe.com/AdobeSVGViewerExtensions/3.0/"
	 x="0px" y="0px" width="50px" height="50px" viewBox="-7.703 -7.702 50 50"
	 overflow="visible" enable-background="new -7.703 -7.702 50 50" xml:space="preserve">
<defs>
</defs>
<g>
	<defs>
		<rect id="SVGID_1_" width="34.594" height="34.596"/>
	</defs>
	<clipPath id="SVGID_2_">
		<use xlink:href="#SVGID_1_"  overflow="visible"/>
	</clipPath>
	<path clip-path="url(#SVGID_2_)" d="M33.682,26.791l-7.281-7.28c-1.215-1.216-1.215-3.208,0.002-4.425l7.279-7.28
		c1.217-1.216,1.217-3.208,0-4.424l-2.469-2.468c-1.217-1.218-3.207-1.218-4.424,0L19.51,8.193c-1.219,1.217-3.209,1.218-4.425,0
		l-7.28-7.279c-1.217-1.216-3.209-1.216-4.424,0L0.913,3.381c-1.217,1.218-1.217,3.208,0,4.425l7.28,7.28
		c1.216,1.217,1.216,3.208-0.001,4.426l-7.279,7.279c-1.217,1.216-1.217,3.207,0,4.425l2.467,2.466
		C4.597,34.9,6.589,34.9,7.805,33.684l7.279-7.279c1.218-1.218,3.209-1.218,4.426-0.001l7.279,7.279
		c1.217,1.218,3.207,1.218,4.424,0l2.469-2.468C34.899,29.999,34.897,28.008,33.682,26.791"/>
</g>
</svg>
