<?xml version="1.0" encoding="utf-8"?>
<!-- Generator: Adobe Illustrator 15.0.0, SVG Export Plug-In  -->
<!DOCTYPE svg PUBLIC "-//W3C//DTD SVG 1.1//EN" "http://www.w3.org/Graphics/SVG/1.1/DTD/svg11.dtd" [
	<!ENTITY ns_flows "http://ns.adobe.com/Flows/1.0/">
]>
<svg version="1.1"
	 xmlns="http://www.w3.org/2000/svg" xmlns:xlink="http://www.w3.org/1999/xlink" xmlns:a="http://ns.adobe.com/AdobeSVGViewerExtensions/3.0/"
	 x="0px" y="0px" width="595px" height="226px" viewBox="0 0 595 226" overflow="visible" enable-background="new 0 0 595 226"
	 xml:space="preserve">
<defs>
</defs>
<g>
	<path fill="#FFFFFF" d="M337.198,160.434c-0.511-14.95-9.592-26.367-24-22c-17.923,5.434-20.255,39.583-22,62
		C320.258,214.209,337.976,183.219,337.198,160.434 M57.198,169.434c18.959-1.189,39.058-20.555,26-38
		C63.365,132.935,58.783,149.686,57.198,169.434 M440.198,137.434c-1.042-4.152-5.814-8.097-10-8c-11.498,0.266-20.796,27.167-19,40
		C426.828,169.047,444.263,153.645,440.198,137.434 M328.198,24.434c-21.027,21.307-24.709,59.958-33,94
		c4.174-4.38,8.519-10.654,12-17c3.462-6.31,6.625-13.235,10-20c6.694-13.418,15.319-29.834,16-44c0.192-4.038,1.408-11.491-4-13
		H328.198z M595.198,168.434c0,4.777-1.265,5.777-3,8c-13.773,8.153-38.251,23.465-54,10c-9.097-7.775-9.164-20.733-12-36
		c-3.854,3.721-6.399,10.863-9,18c-5.164,14.175-13.997,55.396-27,57c-9.851,1.216-14.216-6.952-15-17
		c-11.416,8.947-31.675,19.071-53,17c-17.732-1.722-29.806-13.222-37-25c-28.515,13.556-81.151,37.217-114,13
		c-12.393,4.827-31.215,20.104-44,8c-11.951-11.312-3.764-44.934-5-64c-4.624,3.778-6.531,10.096-9,16
		c-2.258,5.402-4.726,11.481-7,18c-3.638,10.426-6.957,30.932-17,33c-6.399,1.318-14.546-2.881-17-7c-8.269-13.88,4.641-47.166,4-60
		c-14.545,9.131-21.982,61.742-39,67c-10.209,3.154-19.398-4.162-19-15c-6.059,1.244-9.992,6.456-16,9
		c-34.725,14.703-67.036,2.408-72-28c-10.684-1.982-22.101-3.231-30-8c-1.018-8.685,2.024-13.31,6-17c8.456,0.878,11.592,7.074,23,5
		c4.464-16.814,8.68-36.892,21-49c17.909-17.6,60.607-15.483,59,19c-1.312,28.14-29.986,37.352-49,49c0.362,5.985,5.074,9.074,9,10
		c18.63,4.396,38.688-13.236,50-19c4.271-24.062,7.635-49.03,16-69c3.831-2.088,13.149-3.171,18-1c9.736,0.777-2.179,35.065-3,51
		c16.112-17.221,23.736-59.223,49-51c10.736,6.777,0.129,36.699-3,50c4.222-0.051,4.912-6.429,7-10c2.227-3.809,5.324-7.814,8-12
		c5.192-8.119,10.337-19.362,16-24c9.614-7.873,23.157-5.077,24,8c1.321,20.502-14.92,57.642-4,76c11.348,0.016,16.709-5.958,22-12
		c6.035-44.353,7.587-99.093,21-137c9.138-25.824,25.735-53.223,50-49c8.735,1.777,16.991,27.56,15,47
		c-2.86,27.928-21.239,52.818-33,70c16.782-11.338,38.118,3.951,41,24c2.495,17.358-4.324,36.754-11,49
		c12.438-3.228,20.518-10.814,31-16c0.145-12.477,4.294-26.564,11-38c9.373-15.983,25.895-35.093,51-30
		c14.485,2.939,20.717,23.247,17,40c-4.896,22.065-28.179,35.394-48,42c13.868,24.117,50.659-1.696,63-12
		c3.892-23.774,7.152-48.18,17-66c3.766-0.646,10.561-2.199,14,0c2.273,10.06,0.377,24.29,1,36c9.711-14.289,19.264-43.776,35-37
		c15.735,6.777-5.979,50.253,11,58c14.485,6.609,21.755-10.422,36-10c2.35,0.983,4,3.777,4,6V168.434z"/>
</g>
</svg>
